<svg width="44" height="28" viewBox="0 0 44 28" fill="none" xmlns="http://www.w3.org/2000/svg">
<path d="M0 27.075H4.29453V0H0V27.075ZM18.0385 7.30431H12.802L6.54193 15.5458V18.1343L12.9652 27.075H18.2833L10.7549 16.8178L18.0385 7.30431Z" fill="#00A88E"/>
<path d="M28.4355 24.355C28.4355 25.8573 27.2187 27.075 25.7177 27.075C24.2168 27.075 23 25.8573 23 24.355C23 22.8528 24.2168 21.635 25.7177 21.635C27.2187 21.635 28.4355 22.8528 28.4355 24.355Z" fill="black"/>
<path d="M42.8237 5.17855V8.55587H38.391H34.1834H31.0172V5.17855H34.1834H38.391H42.8237Z" fill="black"/>
<path d="M38.391 20.4468C38.391 21.263 38.5129 21.8775 38.7568 22.2903C39.0008 22.6937 39.3151 22.9704 39.6997 23.1205C40.0937 23.2613 40.5206 23.3316 40.9803 23.3316C41.318 23.3316 41.6135 23.3082 41.8668 23.2612C42.1201 23.2143 42.3171 23.1768 42.4578 23.1487L43.2177 26.6245C42.9738 26.7183 42.6267 26.8121 42.1764 26.9059C41.7261 27.0091 41.1632 27.0654 40.4877 27.0748C39.3807 27.0936 38.3488 26.8966 37.3918 26.4838C36.4349 26.071 35.661 25.4331 35.0699 24.57C34.4789 23.7069 34.1834 22.6233 34.1834 21.3193V10.9234H38.391V20.4468Z" fill="black"/>
<path d="M34.1834 5.17855H38.391V0H34.1834V5.17855Z" fill="black"/>
</svg>
